<?xml version="1.0" encoding="UTF-8"?>
<svg xmlns="http://www.w3.org/2000/svg" version="1.1" viewBox="0 0 1000 1000" style="shape-rendering:geometricPrecision; text-rendering:geometricPrecision; image-rendering:optimizeQuality; fill-rule:evenodd; clip-rule:evenodd" xmlns:xlink="http://www.w3.org/1999/xlink">
  <g>
    <path style="opacity:1" fill="#000000" d="M 138.5,19.5 C 142.514,19.3345 146.514,19.5012 150.5,20C 312.672,61.7096 474.672,104.043 636.5,147C 677.541,158.674 716.541,175.007 753.5,196C 785.761,216.261 811.595,242.761 831,275.5C 875.255,360.343 919.255,445.343 963,530.5C 974.012,559.643 964.512,578.143 934.5,586C 929.239,587.385 923.906,588.385 918.5,589C 894.932,590.641 871.599,588.974 848.5,584C 694.115,544.205 539.782,504.205 385.5,464C 369.681,460.85 356.848,453.017 347,440.5C 331.411,410.488 316.244,380.322 301.5,350C 301.847,346.986 303.514,345.319 306.5,345C 309.833,344.333 313.167,344.333 316.5,345C 444.54,378.07 572.54,411.237 700.5,444.5C 702.283,443.652 702.783,442.319 702,440.5C 667.804,373.273 632.971,306.44 597.5,240C 595.5,238.667 593.5,237.333 591.5,236C 467.21,203.511 342.876,171.177 218.5,139C 207.701,136.404 197.701,132.071 188.5,126C 185.296,123.131 182.463,119.965 180,116.5C 164.149,86.2986 148.983,55.7986 134.5,25C 135.007,22.4547 136.341,20.6214 138.5,19.5 Z"/>
  </g>
  <g>
    <path style="opacity:0.995" fill="#000000" d="M 108.5,180.5 C 128.569,179.8 148.235,182.3 167.5,188C 262.108,215.869 356.774,243.536 451.5,271C 461.89,273.109 470.723,277.943 478,285.5C 488.089,310.099 497.589,334.932 506.5,360C 505.689,363.675 503.356,365.509 499.5,365.5C 417.324,342.289 335.324,318.456 253.5,294C 249.718,292.297 246.052,292.297 242.5,294C 262.055,344.661 281.221,395.495 300,446.5C 302.124,450.313 305.291,452.813 309.5,454C 389.5,477.333 469.5,500.667 549.5,524C 558.275,525.969 565.775,530.135 572,536.5C 582.446,561.834 592.113,587.5 601,613.5C 648.385,712.268 695.218,811.268 741.5,910.5C 740.288,914.027 737.788,915.694 734,915.5C 678.997,902.041 624.163,887.874 569.5,873C 557.739,869.563 548.573,862.73 542,852.5C 496.333,756.167 450.667,659.833 405,563.5C 363.254,550.808 321.42,538.308 279.5,526C 249.165,516.679 220.831,503.345 194.5,486C 172.898,468.648 156.731,447.148 146,421.5C 120.74,355.387 96.0735,289.054 72,222.5C 68.6204,204.757 75.1204,192.257 91.5,185C 97.2526,183.314 102.919,181.814 108.5,180.5 Z"/>
  </g>
  <g>
    <path style="opacity:1" fill="#000000" d="M 239.5,546.5 C 245.912,546.68 252.246,547.513 258.5,549C 291.631,556.533 324.631,564.533 357.5,573C 360.353,574.53 361.02,576.697 359.5,579.5C 288.538,633.63 216.871,686.797 144.5,739C 136.523,740.919 128.523,740.919 120.5,739C 90.1667,732 59.8333,725 29.5,718C 24.8069,717.29 20.6402,715.457 17,712.5C 16.7308,709.72 17.8975,707.554 20.5,706C 90.8333,653.667 161.167,601.333 231.5,549C 234.31,548.218 236.977,547.384 239.5,546.5 Z"/>
  </g>
</svg>

