<?xml version="1.0" encoding="UTF-8"?>
<!DOCTYPE svg PUBLIC "-//W3C//DTD SVG 1.1//EN" "http://www.w3.org/Graphics/SVG/1.1/DTD/svg11.dtd">
<svg xmlns="http://www.w3.org/2000/svg" version="1.1" viewBox="0 0 1000 1000" style="shape-rendering:geometricPrecision; text-rendering:geometricPrecision; image-rendering:optimizeQuality; fill-rule:evenodd; clip-rule:evenodd" xmlns:xlink="http://www.w3.org/1999/xlink">
<g><path style="opacity:1" fill="#000000" d="M 347.5,100.5 C 348.88,100.962 349.547,101.962 349.5,103.5C 348.363,109.149 348.363,114.816 349.5,120.5C 349.378,127.035 347.378,132.868 343.5,138C 345.061,146.818 344.394,155.485 341.5,164C 343.542,170.665 344.042,177.499 343,184.5C 335.552,197.062 328.885,210.062 323,223.5C 321.618,231.315 319.618,238.981 317,246.5C 311.95,256.6 307.45,266.933 303.5,277.5C 302.045,278.745 300.711,278.578 299.5,277C 300.617,273.927 300.784,270.76 300,267.5C 296.849,273.802 293.682,280.136 290.5,286.5C 290.833,287.167 291.167,287.833 291.5,288.5C 290.135,289.456 288.635,290.122 287,290.5C 284.763,287.702 282.763,284.702 281,281.5C 279.837,283.285 279.17,285.285 279,287.5C 277.663,288.765 276.163,289.265 274.5,289C 274.536,286.325 274.036,283.492 273,280.5C 269.803,272.578 266.803,264.578 264,256.5C 257.549,249.934 252.883,242.268 250,233.5C 246.87,235.628 244.037,238.128 241.5,241C 243.425,240.865 245.425,240.698 247.5,240.5C 247.649,241.552 247.483,242.552 247,243.5C 203.218,276.876 153.718,295.042 98.5,298C 103.503,296.17 108.503,294.504 113.5,293C 112.57,292.009 111.404,291.509 110,291.5C 91.1854,292.602 72.5188,294.935 54,298.5C 52.5,298.167 51,297.833 49.5,297.5C 62.6807,291.691 76.3474,287.191 90.5,284C 88.7444,283.798 87.0777,283.298 85.5,282.5C 86.09,281.201 87.09,280.368 88.5,280C 104.48,275.015 120.48,270.015 136.5,265C 137.308,264.692 137.975,264.192 138.5,263.5C 137.167,261.833 135.833,260.167 134.5,258.5C 134.709,257.914 135.043,257.414 135.5,257C 143.888,257.736 152.221,257.07 160.5,255C 201.312,236.8 226.646,205.8 236.5,162C 236.023,157.587 234.857,153.42 233,149.5C 229.699,145.8 226.199,142.3 222.5,139C 218.038,136.77 213.372,135.103 208.5,134C 219.069,132.903 229.069,134.736 238.5,139.5C 239.293,138.645 238.96,137.811 237.5,137C 219.28,128.919 200.78,128.419 182,135.5C 178.248,134.812 174.581,133.812 171,132.5C 150.503,136.453 130.003,140.453 109.5,144.5C 108.833,144.167 108.167,143.833 107.5,143.5C 116.68,138.744 126.014,134.244 135.5,130C 139.447,127.72 143.113,125.053 146.5,122C 152.95,121.173 159.283,119.84 165.5,118C 164.692,117.692 164.025,117.192 163.5,116.5C 165.97,115.243 168.303,113.743 170.5,112C 178.238,110.3 185.904,108.3 193.5,106C 217.957,103.023 240.624,107.69 261.5,120C 266.385,124.218 270.552,129.052 274,134.5C 274.257,131.983 273.59,129.65 272,127.5C 269.323,125.322 266.823,122.989 264.5,120.5C 264.833,120.167 265.167,119.833 265.5,119.5C 266.795,120.098 268.128,120.598 269.5,121C 274.321,124.5 278.821,128.333 283,132.5C 284.515,134.547 285.349,136.881 285.5,139.5C 286.538,149.819 286.705,160.153 286,170.5C 282.26,181.638 278.76,192.805 275.5,204C 277.194,209.22 279.027,214.387 281,219.5C 282.037,222.384 283.871,223.05 286.5,221.5C 284.887,218.146 285.22,215.146 287.5,212.5C 288.478,212.977 289.311,213.643 290,214.5C 290.251,212.567 290.751,210.734 291.5,209C 290.572,208.612 289.905,207.945 289.5,207C 297.526,186.589 305.36,166.089 313,145.5C 317.21,137.575 322.043,130.075 327.5,123C 328.483,122.409 329.15,122.743 329.5,124C 323.994,139.479 326.16,140.645 336,127.5C 339.548,118.348 343.382,109.348 347.5,100.5 Z M 336.5,174.5 C 336.008,176.819 335.008,178.819 333.5,180.5C 333.461,177.911 334.461,175.911 336.5,174.5 Z M 274.5,220.5 C 273.067,218.481 271.733,216.314 270.5,214C 271.745,210.841 272.912,211.007 274,214.5C 274.495,216.473 274.662,218.473 274.5,220.5 Z"/></g>
<g><path style="opacity:1" fill="#000000" d="M 68.5,139.5 C 74.7688,146.929 81.9355,153.595 90,159.5C 89.5913,157.775 89.7579,156.108 90.5,154.5C 101.056,164.94 108.556,177.273 113,191.5C 115.186,187.802 117.853,184.468 121,181.5C 122.265,178.539 123.431,175.539 124.5,172.5C 126.692,171.141 128.359,169.308 129.5,167C 130.5,166.333 131.5,166.333 132.5,167C 130.623,169.231 129.79,171.731 130,174.5C 134.727,166.438 140.227,158.938 146.5,152C 152.998,147.583 159.665,143.416 166.5,139.5C 167.521,140.002 167.688,140.668 167,141.5C 162.462,147.407 158.295,153.574 154.5,160C 155.126,160.75 155.626,161.584 156,162.5C 160.011,157.946 164.177,154.279 168.5,151.5C 164.19,160.787 159.357,169.787 154,178.5C 144.61,188.955 135.944,199.955 128,211.5C 127.212,213.165 126.878,214.831 127,216.5C 128.133,214.789 129.633,214.289 131.5,215C 125.822,222.017 121.156,229.683 117.5,238C 117.645,238.772 117.978,239.439 118.5,240C 113.998,248.008 108.998,255.675 103.5,263C 95.0004,268.456 93.3338,267.289 98.5,259.5C 98.3333,259.167 98.1667,258.833 98,258.5C 97.2496,259.126 96.4162,259.626 95.5,260C 91.6667,265.167 87.8333,270.333 84,275.5C 83.0691,277.459 82.2357,279.459 81.5,281.5C 80.675,282.386 79.675,282.719 78.5,282.5C 78.3379,280.473 78.5045,278.473 79,276.5C 80.7391,274.29 81.9057,271.79 82.5,269C 81.1359,265.557 80.4692,265.724 80.5,269.5C 79.5,269.5 78.5,269.5 77.5,269.5C 77.3347,265.818 77.5014,262.152 78,258.5C 82.6051,244.458 88.4384,230.958 95.5,218C 95.3333,217.167 95.1667,216.333 95,215.5C 92.4598,213.295 90.2932,210.795 88.5,208C 87.0494,208.263 85.7161,208.096 84.5,207.5C 85.0535,204.659 85.5535,201.659 86,198.5C 84.2279,194.253 82.5613,189.92 81,185.5C 79,182.833 77,180.167 75,177.5C 74.6383,172.864 73.1383,168.697 70.5,165C 74.0141,162.279 74.3474,159.112 71.5,155.5C 71.6799,154.446 72.0133,153.446 72.5,152.5C 69.0972,148.637 67.7638,144.304 68.5,139.5 Z M 119.5,189.5 C 120.152,191.621 119.485,193.621 117.5,195.5C 116.692,195.192 116.025,194.692 115.5,194C 117.041,192.629 118.375,191.129 119.5,189.5 Z"/></g>
<g><path style="opacity:1" fill="#000000" d="M 216.5,164.5 C 218.527,164.338 220.527,164.505 222.5,165C 213.634,171.211 204.3,176.544 194.5,181C 191.5,182.667 189.167,185 187.5,188C 189.88,191.258 192.38,194.424 195,197.5C 195.333,196.833 195.667,196.167 196,195.5C 199.694,204.087 197.528,210.921 189.5,216C 176.398,223.547 162.231,226.713 147,225.5C 143.477,225.163 139.977,224.663 136.5,224C 143.779,222.884 151.112,221.551 158.5,220C 160.878,219.026 160.544,218.359 157.5,218C 165.321,215.842 172.155,212.008 178,206.5C 178.29,204.956 178.956,203.623 180,202.5C 180.317,204.301 180.984,204.634 182,203.5C 182.808,201.421 182.641,199.421 181.5,197.5C 175.527,194.693 172.027,190.026 171,183.5C 170.667,185.167 170.333,186.833 170,188.5C 167.658,184.069 168.492,180.235 172.5,177C 178.008,173.246 184.008,170.58 190.5,169C 199.342,166.917 208.009,165.417 216.5,164.5 Z"/></g>
</svg>
